<svg width="24" height="24" viewBox="0 0 24 24" fill="none" xmlns="http://www.w3.org/2000/svg">
<circle cx="12" cy="12" r="12" fill="white"/>
<path d="M11.7258 6.25549C11.3851 6.59637 11.3851 7.14905 11.7258 7.48988L15.3219 11.0861H5.8729C5.39076 11.0861 5 11.4769 5 11.9589C5 12.441 5.39076 12.8318 5.8729 12.8318H15.3259L11.6478 16.51C11.307 16.8508 11.307 17.4035 11.6478 17.7444C11.9887 18.0852 12.5413 18.0852 12.8821 17.7444L17.8862 12.7401C17.9121 12.7143 17.9355 12.6868 17.9573 12.6586C18.171 12.4998 18.3101 12.2458 18.3101 11.959C18.3101 11.681 18.1796 11.4338 17.977 11.274C17.9726 11.2693 17.9687 11.2644 17.9641 11.2598L12.9599 6.25564C12.6194 5.91481 12.0666 5.91481 11.7258 6.25549Z" fill="#810F5D"/>
</svg>
