<?xml version="1.0" standalone="no"?>
<!DOCTYPE svg PUBLIC "-//W3C//DTD SVG 20010904//EN"
 "http://www.w3.org/TR/2001/REC-SVG-20010904/DTD/svg10.dtd">
<svg version="1.0" xmlns="http://www.w3.org/2000/svg"
 width="2700.000000pt" height="2700.000000pt" viewBox="0 0 2700.000000 2700.000000"
 preserveAspectRatio="xMidYMid meet">

<g transform="translate(0.000000,2700.000000) scale(0.100000,-0.100000)"
fill="#000000" stroke="none">
<path d="M18453 20030 l-3152 -2609 -178 59 c-165 54 -565 160 -605 160 -30 0
-20 14 30 42 165 93 455 321 637 503 453 451 715 963 812 1585 25 164 25 650
0 830 -37 255 -94 501 -131 565 -34 57 -107 122 -174 153 -51 24 -68 27 -167
26 l-110 0 -4290 -1607 c-2359 -884 -4389 -1646 -4510 -1694 -1110 -436 -2079
-1016 -2905 -1739 -185 -161 -552 -525 -725 -719 -1448 -1614 -2331 -3793
-2725 -6721 -88 -656 -154 -1385 -194 -2144 -39 -732 -41 -856 -41 -3240 l0
-2335 27 -108 c95 -371 319 -664 658 -859 77 -44 214 -97 327 -126 l108 -27
5130 0 5130 0 108 27 c59 15 147 44 195 64 421 174 731 563 806 1013 20 120
21 332 1 445 -36 203 -40 213 -955 2045 -478 958 -870 1748 -870 1755 0 8 -50
17 -162 29 -946 102 -1848 455 -2608 1020 -223 166 -354 280 -586 512 -222
221 -358 376 -509 580 -170 229 -349 516 -453 724 -54 108 -57 117 -57 190 0
66 4 85 32 141 28 56 72 104 320 351 170 170 304 295 328 307 168 83 368 11
449 -163 16 -33 59 -122 97 -198 549 -1098 1614 -1901 2813 -2122 276 -50 391
-60 726 -60 337 0 444 9 711 61 389 75 822 236 1179 439 64 36 65 36 81 16 9
-11 448 -620 975 -1353 879 -1223 968 -1342 1069 -1444 194 -197 415 -315 693
-371 80 -17 179 -18 1297 -18 1121 0 1216 1 1297 18 244 49 473 164 650 325
40 37 498 440 1016 896 680 597 960 849 1001 901 129 162 212 327 263 525 27
100 31 137 35 290 6 197 -7 297 -55 447 -16 49 -682 1623 -1479 3498 -798
1876 -1481 3487 -1518 3580 -156 395 -390 818 -637 1151 l-76 101 2019 3439
c1110 1891 2019 3442 2019 3447 0 4 -3 7 -7 6 -5 0 -1426 -1174 -3160 -2609z
m-4503 -6053 c171 -52 296 -123 413 -236 90 -86 148 -162 202 -264 327 -621
-87 -1379 -790 -1446 -410 -40 -798 179 -980 554 -115 237 -135 485 -58 730
109 346 388 599 750 679 50 11 110 15 223 12 131 -3 168 -7 240 -29z"/>
</g>
</svg>
